<mxfile host="app.diagrams.net" modified="2023-10-09T12:19:53.472Z" agent="Mozilla/5.0 (Windows NT 10.0; Win64; x64) AppleWebKit/537.36 (KHTML, like Gecko) Chrome/117.0.0.0 Safari/537.36" version="22.0.4" etag="uq7D62enKBYt6bgcn7MD" type="github">
  <diagram name="Page-1" id="upIVOssWVjpstBT8P20Z">
    <mxGraphModel>
      <root>
        <mxCell id="0" />
        <mxCell id="1" parent="0" />
      </root>
    </mxGraphModel>
  </diagram>
</mxfile>
